<svg width="110" height="135" viewBox="0 0 110 135" fill="none" xmlns="http://www.w3.org/2000/svg">
<path fill-rule="evenodd" clip-rule="evenodd" d="M91.9122 46.5545C90.6602 43.1652 88.7267 40.1147 85.7843 38.646C81.3574 36.4187 77.0255 36.6662 74.4739 37.1396C72.8363 32.9325 70.8711 29.0214 68.6154 25.5512C64.5477 19.2944 59.5132 14.4364 53.6283 11.7895C44.5949 7.71692 39.074 6.85614 36.2164 9.55142C33.3532 12.263 33.9027 17.8579 36.9455 26.7395L37.0458 27.0247C39.6132 34.5242 42.5082 42.9484 44.3994 51.7023C41.4305 50.9276 37.0458 50.3842 31.3722 51.3149C25.9205 52.2026 22.1168 54.8764 19.6339 58.4433C16.7443 62.6073 15.7353 67.928 16.0576 72.9898C16.3534 77.5951 17.2568 81.7376 18.6673 84.7718C20.2309 88.1557 22.4814 90.3347 25.3183 90.6681C27.5264 90.9263 28.023 89.1456 28.8101 86.2942C29.7927 82.7219 31.6417 76.0402 34.8271 71.5742C37.4315 67.9428 41.14 65.893 46.465 69.2339C46.4756 77.5728 44.8485 85.8574 40.522 93.5782C39.8141 94.8533 38.9847 96.1284 38.0708 97.4086H38.0814L38.0708 97.4194C37.1569 98.7106 36.1584 99.991 35.1125 101.304C28.4245 109.578 18.7257 116.352 18.6986 116.368C18.4873 116.513 18.3024 116.702 18.1387 116.917C17.3251 118.009 17.547 119.558 18.6194 120.376L27.9328 127.51C28.8098 128.182 30.0618 128.172 30.944 127.424C30.9705 127.397 39.3435 120.209 41.1027 120.984C42.9939 121.818 45.3553 122.523 48.6412 122.087C51.6998 121.673 55.5563 120.236 60.5432 116.868C65.5301 113.511 69.5027 108.922 72.535 103.526C73.0686 105.194 73.5599 106.426 74.141 107.109C75.3666 108.54 76.6609 108.718 78.0819 107.443C79.8146 105.909 83.2537 97.3285 84.9707 87.6875C86.1118 81.2424 86.5766 74.1893 85.4092 68.2448C84.1572 61.8589 82.1709 58.0337 79.4238 55.8388L82.6515 55.2524C84.6537 54.8919 86.7509 57.9962 87.9765 59.8145C88.975 61.294 89.6987 62.3647 91.1145 62.4669C92.8366 62.6067 93.8087 61.7513 93.9619 59.6263C94.1362 57.5335 93.7559 51.5631 91.9122 46.5545ZM27.2468 120.797L24.1511 118.429C26.6868 116.466 30.6594 113.211 34.4946 109.305C35.0599 110.236 36.0319 111.629 37.4688 112.996C35.0123 114.798 30.4323 118.198 27.2468 120.797ZM30.9024 68.6759C27.3102 73.6953 25.3133 80.6839 24.225 84.6327C23.8183 84.127 23.4326 83.4545 23.0575 82.6637C21.9059 80.1835 21.1664 76.6812 20.9128 72.6786C20.8705 71.99 20.8547 71.2906 20.8705 70.602C20.8705 70.602 26.3329 54.0157 45.9315 61.8812C45.9896 62.3977 46.0477 62.9249 46.1006 63.4306C39.4074 60.5416 34.4891 63.6564 30.9024 68.6759ZM41.6317 25.3944L41.5313 25.1092C39.1752 18.2391 38.3723 14.2634 39.5344 13.1712C39.5344 13.1712 55.0705 26.8469 57.8077 56.3068C54.9761 57.7808 52.6834 59.7338 50.9455 61.5414C49.6089 48.6673 45.3084 36.1273 41.6317 25.3944ZM76.6515 100.314L76.3134 99.1628C76.1127 98.4742 75.9014 97.7317 75.6637 96.957C75.2992 95.7412 74.903 94.45 74.4645 93.0996C74.0524 91.8407 73.6034 90.528 73.0963 89.1939C69.5727 79.7575 63.7565 69.1383 53.265 66.2378C53.7721 65.6245 54.3744 64.9628 55.0664 64.3011C59.5145 66.0927 70.2914 71.5049 74.0524 83.0662L74.306 83.8409C74.8712 85.5947 75.3731 87.1226 75.8116 88.4192C76.361 90.0224 76.8364 91.292 77.2908 92.2496C77.724 93.1695 78.1466 93.799 78.5904 94.1702C77.9406 96.5803 77.2749 98.6894 76.6515 100.314ZM81.8128 50.3832L78.49 50.9858C78.3949 50.5285 78.2892 50.0282 78.1783 49.4956C78.1783 49.4633 78.1677 49.4257 78.1519 49.3934L78.1624 49.3826C79.2031 47.5911 81.5963 44.2771 85.1039 44.2179C86.0443 45.2401 86.7839 46.6873 87.3703 48.2743C87.9091 49.7269 88.3 51.271 88.5694 52.7343C86.8155 51.0773 84.5968 49.8721 81.8128 50.3832Z" fill="black"/>
</svg>
