<svg xmlns="http://www.w3.org/2000/svg" version="1.1" viewBox="-5.0 -10.0 110.0 135.0">
 <path d="m77.289 34.43c-0.92578-2.4609-2.3555-4.6758-4.5312-5.7422-3.2734-1.6172-6.4766-1.4375-8.3633-1.0938-1.2109-3.0547-2.6641-5.8945-4.332-8.4141-3.0078-4.543-6.7305-8.0703-11.082-9.9922-6.6797-2.957-10.762-3.582-12.875-1.625-2.1172 1.9688-1.7109 6.0312 0.53906 12.48l0.074219 0.20703c1.8984 5.4453 4.0391 11.562 5.4375 17.918-2.1953-0.5625-5.4375-0.95703-9.6328-0.28125-4.0312 0.64453-6.8438 2.5859-8.6797 5.1758-2.1367 3.0234-2.8828 6.8867-2.6445 10.562 0.21875 3.3438 0.88672 6.3516 1.9297 8.5547 1.1562 2.457 2.8203 4.0391 4.918 4.2812 1.6328 0.1875 2-1.1055 2.582-3.1758 0.72656-2.5938 2.0938-7.4453 4.4492-10.688 1.9258-2.6367 4.668-4.125 8.6055-1.6992 0.007812 6.0547-1.1953 12.07-4.3945 17.676-0.52344 0.92578-1.1367 1.8516-1.8125 2.7812h0.007813l-0.007813 0.007812c-0.67578 0.9375-1.4141 1.8672-2.1875 2.8203-4.9453 6.0078-12.117 10.926-12.137 10.938-0.15625 0.10547-0.29297 0.24219-0.41406 0.39844-0.60156 0.79297-0.4375 1.918 0.35547 2.5117l6.8867 5.1797c0.64844 0.48828 1.5742 0.48047 2.2266-0.0625 0.019531-0.019532 6.2109-5.2383 7.5117-4.6758 1.3984 0.60547 3.1445 1.1172 5.5742 0.80078 2.2617-0.30078 5.1133-1.3438 8.8008-3.7891 3.6875-2.4375 6.625-5.7695 8.8672-9.6875 0.39453 1.2109 0.75781 2.1055 1.1875 2.6016 0.90625 1.0391 1.8633 1.168 2.9141 0.24219 1.2812-1.1133 3.8242-7.3438 5.0938-14.344 0.84375-4.6797 1.1875-9.8008 0.32422-14.117-0.92578-4.6367-2.3945-7.4141-4.4258-9.0078l2.3867-0.42578c1.4805-0.26172 3.0312 1.9922 3.9375 3.3125 0.73828 1.0742 1.2734 1.8516 2.3203 1.9258 1.2734 0.10156 1.9922-0.51953 2.1055-2.0625 0.12891-1.5195-0.15234-5.8555-1.5156-9.4922zm-47.816 53.906-2.2891-1.7188c1.875-1.4258 4.8125-3.7891 7.6484-6.625 0.41797 0.67578 1.1367 1.6875 2.1992 2.6797-1.8164 1.3086-5.2031 3.7773-7.5586 5.6641zm2.7031-37.844c-2.6562 3.6445-4.1328 8.7188-4.9375 11.586-0.30078-0.36719-0.58594-0.85547-0.86328-1.4297-0.85156-1.8008-1.3984-4.3438-1.5859-7.25-0.03125-0.5-0.042968-1.0078-0.03125-1.5078 0 0 4.0391-12.043 18.531-6.332 0.042969 0.375 0.085938 0.75781 0.125 1.125-4.9492-2.0977-8.5859 0.16406-11.238 3.8086zm7.9336-31.426-0.074219-0.20703c-1.7422-4.9883-2.3359-7.875-1.4766-8.668 0 0 11.488 9.9297 13.512 31.32-2.0938 1.0703-3.7891 2.4883-5.0742 3.8008-0.98828-9.3477-4.168-18.453-6.8867-26.246zm25.895 54.398-0.25-0.83594c-0.14844-0.5-0.30469-1.0391-0.48047-1.6016-0.26953-0.88281-0.5625-1.8203-0.88672-2.8008-0.30469-0.91406-0.63672-1.8672-1.0117-2.8359-2.6055-6.8516-6.9062-14.562-14.664-16.668 0.375-0.44531 0.82031-0.92578 1.332-1.4062 3.2891 1.3008 11.258 5.2305 14.039 13.625l0.1875 0.5625c0.41797 1.2734 0.78906 2.3828 1.1133 3.3242 0.40625 1.1641 0.75781 2.0859 1.0938 2.7812 0.32031 0.66797 0.63281 1.125 0.96094 1.3945-0.48047 1.75-0.97266 3.2812-1.4336 4.4609zm3.8164-36.254-2.457 0.4375c-0.070312-0.33203-0.14844-0.69531-0.23047-1.082 0-0.023437-0.007812-0.050781-0.019531-0.074218l0.007813-0.007813c0.76953-1.3008 2.5391-3.707 5.1328-3.75 0.69531 0.74219 1.2422 1.793 1.6758 2.9453 0.39844 1.0547 0.6875 2.1758 0.88672 3.2383-1.2969-1.2031-2.9375-2.0781-4.9961-1.707z" fill-rule="evenodd"/>
</svg>